<?xml version="1.0" encoding="UTF-8"?>
<svg width="329px" height="99px" viewBox="0 0 329 99" version="1.1" xmlns="http://www.w3.org/2000/svg" xmlns:xlink="http://www.w3.org/1999/xlink">
    <!-- Generator: Sketch 46.2 (44496) - http://www.bohemiancoding.com/sketch -->
    <title>Logo</title>
    <desc>Created with Sketch.</desc>
    <defs></defs>
    <g id="WEB-2018" stroke="none" stroke-width="1" fill="none" fill-rule="evenodd">
        <g id="Desktop-HD-VERDE" transform="translate(-44.000000, -89.000000)" fill="#FFFFFF">
            <g id="Portada" transform="translate(-138.000000, -33.000000)">
                <g id="Logo" transform="translate(182.000000, 122.000000)">
                    <path d="M66.074064,19.712 L66.074064,21 L52.550064,21 L52.550064,1.4 L65.654064,1.4 L65.654064,2.688 L53.978064,2.688 L53.978064,10.416 L64.422064,10.416 L64.422064,11.676 L53.978064,11.676 L53.978064,19.712 L66.074064,19.712 Z M69.73288,20.58 C68.6688747,20.2253316 67.8382163,19.777336 67.24088,19.236 L67.88488,18.116 C68.4822163,18.6200025 69.2522086,19.0399983 70.19488,19.376 C71.1375514,19.7120017 72.1222082,19.88 73.14888,19.88 C74.6235541,19.88 75.7108765,19.6373358 76.41088,19.152 C77.1108835,18.6666642 77.46088,17.994671 77.46088,17.136 C77.46088,16.5199969 77.2695486,16.0346684 76.88688,15.68 C76.5042114,15.3253316 76.0328828,15.0640008 75.47288,14.896 C74.9128772,14.7279992 74.1382183,14.5506676 73.14888,14.364 C71.9915409,14.1586656 71.0582169,13.9346679 70.34888,13.692 C69.6395431,13.4493321 69.0328825,13.057336 68.52888,12.516 C68.0248775,11.974664 67.77288,11.2280048 67.77288,10.276 C67.77288,9.11866088 68.2535419,8.16200378 69.21488,7.406 C70.1762182,6.64999622 71.5435378,6.272 73.31688,6.272 C74.250218,6.272 75.1742088,6.40266536 76.08888,6.664 C77.0035513,6.92533464 77.7502105,7.27066452 78.32888,7.7 L77.68488,8.82 C77.0875437,8.39066452 76.4062172,8.06400112 75.64088,7.84 C74.8755429,7.61599888 74.0915507,7.504 73.28888,7.504 C71.9262065,7.504 70.8995501,7.75599748 70.20888,8.26 C69.5182099,8.76400252 69.17288,9.42666256 69.17288,10.248 C69.17288,10.9013366 69.3688781,11.4099982 69.76088,11.774 C70.152882,12.1380018 70.6335438,12.4086658 71.20288,12.586 C71.7722162,12.7633342 72.5702082,12.9546656 73.59688,13.16 C74.7355524,13.3653344 75.6548765,13.5846655 76.35488,13.818 C77.0548835,14.0513345 77.6475443,14.4293307 78.13288,14.952 C78.6182158,15.4746693 78.86088,16.1933288 78.86088,17.108 C78.86088,18.3213394 78.3568851,19.2919964 77.34888,20.02 C76.340875,20.7480036 74.9222225,21.112 73.09288,21.112 C71.9168741,21.112 70.7968853,20.9346684 69.73288,20.58 Z M88.847696,20.076 C88.4930276,20.4120017 88.0496987,20.6686658 87.517696,20.846 C86.9856934,21.0233342 86.4303656,21.112 85.851696,21.112 C84.5823563,21.112 83.6023661,20.7620035 82.911696,20.062 C82.2210259,19.3619965 81.875696,18.3866729 81.875696,17.136 L81.875696,7.588 L79.187696,7.588 L79.187696,6.384 L81.875696,6.384 L81.875696,3.192 L83.275696,3.192 L83.275696,6.384 L87.923696,6.384 L87.923696,7.588 L83.275696,7.588 L83.275696,16.996 C83.275696,17.9480048 83.5043604,18.6713309 83.961696,19.166 C84.4190316,19.6606691 85.0956915,19.908 85.991696,19.908 C86.9063673,19.908 87.6623597,19.637336 88.259696,19.096 L88.847696,20.076 Z M103.370512,14.028 L90.798512,14.028 C90.8358455,15.1666724 91.125176,16.1793289 91.666512,17.066 C92.2078481,17.9526711 92.9405074,18.6386642 93.864512,19.124 C94.7885166,19.6093358 95.8291729,19.852 96.986512,19.852 C97.9385168,19.852 98.820508,19.6793351 99.632512,19.334 C100.444516,18.9886649 101.121176,18.4800034 101.662512,17.808 L102.474512,18.732 C101.839842,19.4973372 101.04185,20.0853313 100.080512,20.496 C99.1191739,20.9066687 98.0785176,21.112 96.958512,21.112 C95.5025047,21.112 94.2051844,20.7946698 93.066512,20.16 C91.9278397,19.5253302 91.0365152,18.6480056 90.392512,17.528 C89.7485088,16.4079944 89.426512,15.1293405 89.426512,13.692 C89.426512,12.2733262 89.7298423,10.999339 90.336512,9.87 C90.9431817,8.74066102 91.7785067,7.85866984 92.842512,7.224 C93.9065173,6.58933016 95.1011721,6.272 96.426512,6.272 C97.751852,6.272 98.9418401,6.58466354 99.996512,7.21 C101.051184,7.83533646 101.881842,8.7079944 102.488512,9.828 C103.095182,10.9480056 103.398512,12.2173262 103.398512,13.636 L103.370512,14.028 Z M93.654512,8.19 C92.8331746,8.64733562 92.1751812,9.29132918 91.680512,10.122 C91.1858429,10.9526708 90.9011791,11.8906614 90.826512,12.936 L102.026512,12.936 C101.970512,11.8906614 101.690515,10.9573374 101.186512,10.136 C100.682509,9.31466256 100.019849,8.670669 99.198512,8.204 C98.3771746,7.737331 97.4531838,7.504 96.426512,7.504 C95.3998402,7.504 94.4758495,7.73266438 93.654512,8.19 Z M98.722512,0.7 L100.738512,0.7 L96.342512,4.004 L94.830512,4.004 L98.722512,0.7 Z M113.805328,20.076 C113.45066,20.4120017 113.007331,20.6686658 112.475328,20.846 C111.943325,21.0233342 111.387998,21.112 110.809328,21.112 C109.539988,21.112 108.559998,20.7620035 107.869328,20.062 C107.178658,19.3619965 106.833328,18.3866729 106.833328,17.136 L106.833328,7.588 L104.145328,7.588 L104.145328,6.384 L106.833328,6.384 L106.833328,3.192 L108.233328,3.192 L108.233328,6.384 L112.881328,6.384 L112.881328,7.588 L108.233328,7.588 L108.233328,16.996 C108.233328,17.9480048 108.461992,18.6713309 108.919328,19.166 C109.376664,19.6606691 110.053324,19.908 110.949328,19.908 C111.863999,19.908 112.619992,19.637336 113.217328,19.096 L113.805328,20.076 Z M116.512144,6.384 L117.912144,6.384 L117.912144,21 L116.512144,21 L116.512144,6.384 Z M116.400144,2.506 C116.176143,2.29133226 116.064144,2.02533492 116.064144,1.708 C116.064144,1.39066508 116.176143,1.12000112 116.400144,0.896 C116.624145,0.67199888 116.894809,0.56 117.212144,0.56 C117.529479,0.56 117.800143,0.66733226 118.024144,0.882 C118.248145,1.09666774 118.360144,1.36266508 118.360144,1.68 C118.360144,1.99733492 118.248145,2.26799888 118.024144,2.492 C117.800143,2.71600112 117.529479,2.828 117.212144,2.828 C116.894809,2.828 116.624145,2.72066774 116.400144,2.506 Z M124.62296,20.16 C123.502954,19.5253302 122.62563,18.643339 121.99096,17.514 C121.35629,16.384661 121.03896,15.1106738 121.03896,13.692 C121.03896,12.2546595 121.35629,10.971339 121.99096,9.842 C122.62563,8.71266102 123.502954,7.83533646 124.62296,7.21 C125.742966,6.58466354 127.012286,6.272 128.43096,6.272 C129.606966,6.272 130.675622,6.50066438 131.63696,6.958 C132.598298,7.41533562 133.377624,8.08266228 133.97496,8.96 L132.93896,9.716 C132.416291,8.98799636 131.767631,8.44200182 130.99296,8.078 C130.218289,7.71399818 129.364298,7.532 128.43096,7.532 C127.292288,7.532 126.270298,7.7886641 125.36496,8.302 C124.459622,8.8153359 123.750296,9.538662 123.23696,10.472 C122.723624,11.405338 122.46696,12.4786606 122.46696,13.692 C122.46696,14.9053394 122.723624,15.978662 123.23696,16.912 C123.750296,17.845338 124.459622,18.5686641 125.36496,19.082 C126.270298,19.5953359 127.292288,19.852 128.43096,19.852 C129.364298,19.852 130.218289,19.6700018 130.99296,19.306 C131.767631,18.9419982 132.416291,18.3960036 132.93896,17.668 L133.97496,18.424 C133.377624,19.3013377 132.598298,19.9686644 131.63696,20.426 C130.675622,20.8833356 129.606966,21.112 128.43096,21.112 C127.012286,21.112 125.742966,20.7946698 124.62296,20.16 Z M146.089776,7.658 C147.060448,8.58200462 147.545776,9.93999104 147.545776,11.732 L147.545776,21 L146.201776,21 L146.201776,18.396 C145.735107,19.254671 145.05378,19.9219976 144.157776,20.398 C143.261772,20.8740024 142.188449,21.112 140.937776,21.112 C139.313768,21.112 138.030447,20.7293372 137.087776,19.964 C136.145105,19.1986628 135.673776,18.1906729 135.673776,16.94 C135.673776,15.7266606 136.107772,14.7420038 136.975776,13.986 C137.84378,13.2299962 139.229766,12.852 141.133776,12.852 L146.145776,12.852 L146.145776,11.676 C146.145776,10.3133265 145.777113,9.27733688 145.039776,8.568 C144.302439,7.85866312 143.22445,7.504 141.805776,7.504 C140.835104,7.504 139.906447,7.67199832 139.019776,8.008 C138.133105,8.34400168 137.381779,8.7919972 136.765776,9.352 L136.065776,8.344 C136.79378,7.6906634 137.671104,7.18200182 138.697776,6.818 C139.724448,6.45399818 140.79777,6.272 141.917776,6.272 C143.728452,6.272 145.119104,6.73399538 146.089776,7.658 Z M144.227776,19.124 C145.077114,18.5639972 145.716441,17.7520053 146.145776,16.688 L146.145776,13.944 L141.161776,13.944 C139.724435,13.944 138.683779,14.2053307 138.039776,14.728 C137.395773,15.2506693 137.073776,15.9693288 137.073776,16.884 C137.073776,17.8360048 137.428439,18.5873306 138.137776,19.138 C138.847113,19.6886694 139.84577,19.964 141.133776,19.964 C142.347115,19.964 143.378438,19.6840028 144.227776,19.124 Z M170.711408,15.484 L159.343408,15.484 L156.851408,21 L155.311408,21 L164.327408,1.4 L165.755408,1.4 L174.771408,21 L173.231408,21 L170.711408,15.484 Z M170.179408,14.28 L165.027408,2.968 L159.903408,14.28 L170.179408,14.28 Z M187.698224,6.384 L181.090224,21 L179.662224,21 L173.082224,6.384 L174.566224,6.384 L180.390224,19.46 L186.270224,6.384 L187.698224,6.384 Z M198.21704,7.658 C199.187712,8.58200462 199.67304,9.93999104 199.67304,11.732 L199.67304,21 L198.32904,21 L198.32904,18.396 C197.862371,19.254671 197.181044,19.9219976 196.28504,20.398 C195.389036,20.8740024 194.315713,21.112 193.06504,21.112 C191.441032,21.112 190.157711,20.7293372 189.21504,19.964 C188.272369,19.1986628 187.80104,18.1906729 187.80104,16.94 C187.80104,15.7266606 188.235036,14.7420038 189.10304,13.986 C189.971044,13.2299962 191.35703,12.852 193.26104,12.852 L198.27304,12.852 L198.27304,11.676 C198.27304,10.3133265 197.904377,9.27733688 197.16704,8.568 C196.429703,7.85866312 195.351714,7.504 193.93304,7.504 C192.962368,7.504 192.033711,7.67199832 191.14704,8.008 C190.260369,8.34400168 189.509043,8.7919972 188.89304,9.352 L188.19304,8.344 C188.921044,7.6906634 189.798368,7.18200182 190.82504,6.818 C191.851712,6.45399818 192.925034,6.272 194.04504,6.272 C195.855716,6.272 197.246368,6.73399538 198.21704,7.658 Z M196.35504,19.124 C197.204378,18.5639972 197.843705,17.7520053 198.27304,16.688 L198.27304,13.944 L193.28904,13.944 C191.851699,13.944 190.811043,14.2053307 190.16704,14.728 C189.523037,15.2506693 189.20104,15.9693288 189.20104,16.884 C189.20104,17.8360048 189.555703,18.5873306 190.26504,19.138 C190.974377,19.6886694 191.973034,19.964 193.26104,19.964 C194.474379,19.964 195.505702,19.6840028 196.35504,19.124 Z M215.735856,7.868 C216.799861,8.93200532 217.331856,10.4626567 217.331856,12.46 L217.331856,21 L215.931856,21 L215.931856,12.572 C215.931856,10.9293251 215.516527,9.67867096 214.685856,8.82 C213.855185,7.96132904 212.693197,7.532 211.199856,7.532 C209.482514,7.532 208.129194,8.0453282 207.139856,9.072 C206.150518,10.0986718 205.655856,11.4799913 205.655856,13.216 L205.655856,21 L204.255856,21 L204.255856,6.384 L205.599856,6.384 L205.599856,9.548 C206.103859,8.5213282 206.855184,7.71866956 207.853856,7.14 C208.852528,6.56133044 210.033183,6.272 211.395856,6.272 C213.225198,6.272 214.671851,6.80399468 215.735856,7.868 Z M231.798672,19.796 L231.798672,21 L220.178672,21 L220.178672,20.048 L229.810672,7.588 L220.318672,7.588 L220.318672,6.384 L231.630672,6.384 L231.630672,7.336 L221.970672,19.796 L231.798672,19.796 Z M243.913488,7.658 C244.88416,8.58200462 245.369488,9.93999104 245.369488,11.732 L245.369488,21 L244.025488,21 L244.025488,18.396 C243.558819,19.254671 242.877492,19.9219976 241.981488,20.398 C241.085484,20.8740024 240.012161,21.112 238.761488,21.112 C237.13748,21.112 235.854159,20.7293372 234.911488,19.964 C233.968817,19.1986628 233.497488,18.1906729 233.497488,16.94 C233.497488,15.7266606 233.931484,14.7420038 234.799488,13.986 C235.667492,13.2299962 237.053478,12.852 238.957488,12.852 L243.969488,12.852 L243.969488,11.676 C243.969488,10.3133265 243.600825,9.27733688 242.863488,8.568 C242.126151,7.85866312 241.048162,7.504 239.629488,7.504 C238.658816,7.504 237.730159,7.67199832 236.843488,8.008 C235.956817,8.34400168 235.205491,8.7919972 234.589488,9.352 L233.889488,8.344 C234.617492,7.6906634 235.494816,7.18200182 236.521488,6.818 C237.54816,6.45399818 238.621482,6.272 239.741488,6.272 C241.552164,6.272 242.942816,6.73399538 243.913488,7.658 Z M242.051488,19.124 C242.900826,18.5639972 243.540153,17.7520053 243.969488,16.688 L243.969488,13.944 L238.985488,13.944 C237.548147,13.944 236.507491,14.2053307 235.863488,14.728 C235.219485,15.2506693 234.897488,15.9693288 234.897488,16.884 C234.897488,17.8360048 235.252151,18.5873306 235.961488,19.138 C236.670825,19.6886694 237.669482,19.964 238.957488,19.964 C240.170827,19.964 241.20215,19.6840028 242.051488,19.124 Z M262.972304,0.224 L262.972304,21 L261.600304,21 L261.600304,17.556 C261.021634,18.6946724 260.209643,19.5719969 259.164304,20.188 C258.118965,20.8040031 256.933644,21.112 255.608304,21.112 C254.245631,21.112 253.013643,20.7946698 251.912304,20.16 C250.810965,19.5253302 249.94764,18.6480056 249.322304,17.528 C248.696968,16.4079944 248.384304,15.1293405 248.384304,13.692 C248.384304,12.2546595 248.696968,10.971339 249.322304,9.842 C249.94764,8.71266102 250.810965,7.83533646 251.912304,7.21 C253.013643,6.58466354 254.245631,6.272 255.608304,6.272 C256.914977,6.272 258.086299,6.57999692 259.122304,7.196 C260.158309,7.81200308 260.974968,8.67066116 261.572304,9.772 L261.572304,0.224 L262.972304,0.224 Z M258.702304,19.068 C259.588975,18.5453307 260.288968,17.817338 260.802304,16.884 C261.31564,15.950662 261.572304,14.8866726 261.572304,13.692 C261.572304,12.4973274 261.31564,11.433338 260.802304,10.5 C260.288968,9.566662 259.588975,8.83866928 258.702304,8.316 C257.815633,7.79333072 256.81231,7.532 255.692304,7.532 C254.572298,7.532 253.568975,7.79333072 252.682304,8.316 C251.795633,8.83866928 251.09564,9.566662 250.582304,10.5 C250.068968,11.433338 249.812304,12.4973274 249.812304,13.692 C249.812304,14.8866726 250.068968,15.950662 250.582304,16.884 C251.09564,17.817338 251.795633,18.5453307 252.682304,19.068 C253.568975,19.5906693 254.572298,19.852 255.692304,19.852 C256.81231,19.852 257.815633,19.5906693 258.702304,19.068 Z M276.79512,7.658 C277.765792,8.58200462 278.25112,9.93999104 278.25112,11.732 L278.25112,21 L276.90712,21 L276.90712,18.396 C276.440451,19.254671 275.759124,19.9219976 274.86312,20.398 C273.967116,20.8740024 272.893793,21.112 271.64312,21.112 C270.019112,21.112 268.735791,20.7293372 267.79312,19.964 C266.850449,19.1986628 266.37912,18.1906729 266.37912,16.94 C266.37912,15.7266606 266.813116,14.7420038 267.68112,13.986 C268.549124,13.2299962 269.93511,12.852 271.83912,12.852 L276.85112,12.852 L276.85112,11.676 C276.85112,10.3133265 276.482457,9.27733688 275.74512,8.568 C275.007783,7.85866312 273.929794,7.504 272.51112,7.504 C271.540448,7.504 270.611791,7.67199832 269.72512,8.008 C268.838449,8.34400168 268.087123,8.7919972 267.47112,9.352 L266.77112,8.344 C267.499124,7.6906634 268.376448,7.18200182 269.40312,6.818 C270.429792,6.45399818 271.503114,6.272 272.62312,6.272 C274.433796,6.272 275.824448,6.73399538 276.79512,7.658 Z M274.93312,19.124 C275.782458,18.5639972 276.421785,17.7520053 276.85112,16.688 L276.85112,13.944 L271.86712,13.944 C270.429779,13.944 269.389123,14.2053307 268.74512,14.728 C268.101117,15.2506693 267.77912,15.9693288 267.77912,16.884 C267.77912,17.8360048 268.133783,18.5873306 268.84312,19.138 C269.552457,19.6886694 270.551114,19.964 271.83912,19.964 C273.052459,19.964 274.083782,19.6840028 274.93312,19.124 Z" id="Estética-Avanzada"></path>
                    <path d="M107.747104,53.384 L107.747104,89 L105.395104,89 L105.395104,83.096 C104.403099,85.0480098 103.011113,86.5519947 101.219104,87.608 C99.4270951,88.6640053 97.3951154,89.192 95.123104,89.192 C92.7870923,89.192 90.6751135,88.6480054 88.787104,87.56 C86.8990946,86.4719946 85.4191094,84.9680096 84.347104,83.048 C83.2750987,81.1279904 82.739104,78.9360123 82.739104,76.472 C82.739104,74.0079877 83.2750987,71.8080097 84.347104,69.872 C85.4191094,67.9359903 86.8990946,66.4320054 88.787104,65.36 C90.6751135,64.2879946 92.7870923,63.752 95.123104,63.752 C97.3631152,63.752 99.3710951,64.2799947 101.147104,65.336 C102.923113,66.3920053 104.323099,67.8639906 105.347104,69.752 L105.347104,53.384 L107.747104,53.384 Z M100.427104,85.688 C101.947112,84.7919955 103.1471,83.544008 104.027104,81.944 C104.907108,80.343992 105.347104,78.5200102 105.347104,76.472 C105.347104,74.4239898 104.907108,72.600008 104.027104,71 C103.1471,69.399992 101.947112,68.1520045 100.427104,67.256 C98.9070964,66.3599955 97.1871136,65.912 95.267104,65.912 C93.3470944,65.912 91.6271116,66.3599955 90.107104,67.256 C88.5870964,68.1520045 87.3871084,69.399992 86.507104,71 C85.6270996,72.600008 85.187104,74.4239898 85.187104,76.472 C85.187104,78.5200102 85.6270996,80.343992 86.507104,81.944 C87.3871084,83.544008 88.5870964,84.7919955 90.107104,85.688 C91.6271116,86.5840045 93.3470944,87.032 95.267104,87.032 C97.1871136,87.032 98.9070964,86.5840045 100.427104,85.688 Z M131.44336,66.128 C133.107368,67.7120079 133.93936,70.0399846 133.93936,73.112 L133.93936,89 L131.63536,89 L131.63536,84.536 C130.835356,86.0080074 129.667368,87.1519959 128.13136,87.968 C126.595352,88.7840041 124.755371,89.192 122.61136,89.192 C119.827346,89.192 117.627368,88.5360066 116.01136,87.224 C114.395352,85.9119934 113.58736,84.1840107 113.58736,82.04 C113.58736,79.9599896 114.331353,78.2720065 115.81936,76.976 C117.307367,75.6799935 119.683344,75.032 122.94736,75.032 L131.53936,75.032 L131.53936,73.016 C131.53936,70.6799883 130.907366,68.9040061 129.64336,67.688 C128.379354,66.4719939 126.531372,65.864 124.09936,65.864 C122.435352,65.864 120.843368,66.1519971 119.32336,66.728 C117.803352,67.3040029 116.515365,68.0719952 115.45936,69.032 L114.25936,67.304 C115.507366,66.1839944 117.011351,65.3120031 118.77136,64.688 C120.531369,64.0639969 122.37135,63.752 124.29136,63.752 C127.395376,63.752 129.779352,64.5439921 131.44336,66.128 Z M128.25136,85.784 C129.707367,84.8239952 130.803356,83.4320091 131.53936,81.608 L131.53936,76.904 L122.99536,76.904 C120.531348,76.904 118.747366,77.3519955 117.64336,78.248 C116.539354,79.1440045 115.98736,80.3759922 115.98736,81.944 C115.98736,83.5760082 116.595354,84.8639953 117.81136,85.808 C119.027366,86.7520047 120.739349,87.224 122.94736,87.224 C125.02737,87.224 126.795353,86.7440048 128.25136,85.784 Z M161.427616,63.944 L148.563616,92.408 C147.603611,94.616011 146.491622,96.1839954 145.227616,97.112 C143.96361,98.0400046 142.467625,98.504 140.739616,98.504 C139.58761,98.504 138.507621,98.3120019 137.499616,97.928 C136.491611,97.5439981 135.63562,96.9840037 134.931616,96.248 L136.131616,94.424 C137.411622,95.7360066 138.963607,96.392 140.787616,96.392 C142.003622,96.392 143.043612,96.0560034 143.907616,95.384 C144.77162,94.7119966 145.571612,93.5600082 146.307616,91.928 L147.651616,88.904 L136.371616,63.944 L138.915616,63.944 L148.947616,86.36 L158.979616,63.944 L161.427616,63.944 Z M165.395872,53.384 L167.651872,53.384 L167.651872,98.312 L165.395872,98.312 L165.395872,53.384 Z M177.140128,88.28 C175.316119,87.671997 173.892133,86.9040046 172.868128,85.976 L173.972128,84.056 C174.996133,84.9200043 176.31612,85.6399971 177.932128,86.216 C179.548136,86.7920029 181.236119,87.08 182.996128,87.08 C185.524141,87.08 187.388122,86.6640042 188.588128,85.832 C189.788134,84.9999958 190.388128,83.8480074 190.388128,82.376 C190.388128,81.3199947 190.060131,80.488003 189.404128,79.88 C188.748125,79.271997 187.940133,78.8240014 186.980128,78.536 C186.020123,78.2479986 184.692136,77.9440016 182.996128,77.624 C181.012118,77.2719982 179.412134,76.8880021 178.196128,76.472 C176.980122,76.0559979 175.940132,75.3840046 175.076128,74.456 C174.212124,73.5279954 173.780128,72.2480082 173.780128,70.616 C173.780128,68.6319901 174.60412,66.9920065 176.252128,65.696 C177.900136,64.3999935 180.244113,63.752 183.284128,63.752 C184.884136,63.752 186.46812,63.9759978 188.036128,64.424 C189.604136,64.8720022 190.884123,65.4639963 191.876128,66.2 L190.772128,68.12 C189.748123,67.3839963 188.580135,66.8240019 187.268128,66.44 C185.956121,66.0559981 184.612135,65.864 183.236128,65.864 C180.900116,65.864 179.140134,66.2959957 177.956128,67.16 C176.772122,68.0240043 176.180128,69.159993 176.180128,70.568 C176.180128,71.6880056 176.516125,72.5599969 177.188128,73.184 C177.860131,73.8080031 178.684123,74.2719985 179.660128,74.576 C180.636133,74.8800015 182.004119,75.2079982 183.764128,75.56 C185.716138,75.9120018 187.292122,76.287998 188.492128,76.688 C189.692134,77.088002 190.708124,77.7359955 191.540128,78.632 C192.372132,79.5280045 192.788128,80.7599922 192.788128,82.328 C192.788128,84.4080104 191.924137,86.0719938 190.196128,87.32 C188.468119,88.5680062 186.036144,89.192 182.900128,89.192 C180.884118,89.192 178.964137,88.888003 177.140128,88.28 Z M216.388384,65.384 C218.276393,66.4720054 219.756379,67.9759904 220.828384,69.896 C221.900389,71.8160096 222.436384,74.0079877 222.436384,76.472 C222.436384,78.9360123 221.900389,81.1359903 220.828384,83.072 C219.756379,85.0080097 218.276393,86.5119946 216.388384,87.584 C214.500375,88.6560054 212.388396,89.192 210.052384,89.192 C207.844373,89.192 205.844393,88.6720052 204.052384,87.632 C202.260375,86.5919948 200.868389,85.1440093 199.876384,83.288 L199.876384,98.312 L197.476384,98.312 L197.476384,63.944 L199.780384,63.944 L199.780384,69.848 C200.772389,67.9279904 202.172375,66.4320054 203.980384,65.36 C205.788393,64.2879946 207.812373,63.752 210.052384,63.752 C212.388396,63.752 214.500375,64.2959946 216.388384,65.384 Z M215.092384,85.688 C216.628392,84.7919955 217.83638,83.544008 218.716384,81.944 C219.596388,80.343992 220.036384,78.5200102 220.036384,76.472 C220.036384,74.4239898 219.596388,72.600008 218.716384,71 C217.83638,69.399992 216.628392,68.1520045 215.092384,67.256 C213.556376,66.3599955 211.828394,65.912 209.908384,65.912 C207.988374,65.912 206.268392,66.3599955 204.748384,67.256 C203.228376,68.1520045 202.028388,69.399992 201.148384,71 C200.26838,72.600008 199.828384,74.4239898 199.828384,76.472 C199.828384,78.5200102 200.26838,80.343992 201.148384,81.944 C202.028388,83.544008 203.228376,84.7919955 204.748384,85.688 C206.268392,86.5840045 207.988374,87.032 209.908384,87.032 C211.828394,87.032 213.556376,86.5840045 215.092384,85.688 Z M243.34864,66.128 C245.012648,67.7120079 245.84464,70.0399846 245.84464,73.112 L245.84464,89 L243.54064,89 L243.54064,84.536 C242.740636,86.0080074 241.572648,87.1519959 240.03664,87.968 C238.500632,88.7840041 236.660651,89.192 234.51664,89.192 C231.732626,89.192 229.532648,88.5360066 227.91664,87.224 C226.300632,85.9119934 225.49264,84.1840107 225.49264,82.04 C225.49264,79.9599896 226.236633,78.2720065 227.72464,76.976 C229.212647,75.6799935 231.588624,75.032 234.85264,75.032 L243.44464,75.032 L243.44464,73.016 C243.44464,70.6799883 242.812646,68.9040061 241.54864,67.688 C240.284634,66.4719939 238.436652,65.864 236.00464,65.864 C234.340632,65.864 232.748648,66.1519971 231.22864,66.728 C229.708632,67.3040029 228.420645,68.0719952 227.36464,69.032 L226.16464,67.304 C227.412646,66.1839944 228.916631,65.3120031 230.67664,64.688 C232.436649,64.0639969 234.27663,63.752 236.19664,63.752 C239.300656,63.752 241.684632,64.5439921 243.34864,66.128 Z M240.15664,85.784 C241.612647,84.8239952 242.708636,83.4320091 243.44464,81.608 L243.44464,76.904 L234.90064,76.904 C232.436628,76.904 230.652646,77.3519955 229.54864,78.248 C228.444634,79.1440045 227.89264,80.3759922 227.89264,81.944 C227.89264,83.5760082 228.500634,84.8639953 229.71664,85.808 C230.932646,86.7520047 232.644629,87.224 234.85264,87.224 C236.93265,87.224 238.700633,86.7440048 240.15664,85.784 Z" id="day|spa"></path>
                    <g id="Lline" transform="translate(0.000000, 21.000000)" stroke="#FFFFFF">
                        <path d="M23.5,18.5 L308.570167,18.5" id="Line-2" stroke-width="7" stroke-linecap="round" stroke-dasharray="1,13"></path>
                        <g id="Group-6">
                            <polygon id="Polygon" transform="translate(12.878397, 9.318097) rotate(-25.000000) translate(-12.878397, -9.318097) " points="12.8783975 1.35977741 17.8602219 9.31809699 12.8783975 17.2764166 7.89657303 9.31809699"></polygon>
                            <polygon id="Polygon-Copy" transform="translate(8.044052, 19.119958) rotate(91.000000) translate(-8.044052, -19.119958) " points="8.04405231 11.1616379 13.0258767 19.1199575 8.04405231 27.0782771 3.06222788 19.1199575"></polygon>
                            <polygon id="Polygon-Copy-2" transform="translate(13.051840, 28.352616) rotate(-153.000000) translate(-13.051840, -28.352616) " points="13.0518396 20.3942961 18.033664 28.3526156 13.0518396 36.3109352 8.07001512 28.3526156"></polygon>
                        </g>
                        <g id="Group-6-Copy" transform="translate(318.000000, 19.000000) rotate(-180.000000) translate(-318.000000, -19.000000) translate(307.000000, 0.000000)">
                            <polygon id="Polygon" transform="translate(12.878397, 9.318097) rotate(-25.000000) translate(-12.878397, -9.318097) " points="12.8783975 1.35977741 17.8602219 9.31809699 12.8783975 17.2764166 7.89657303 9.31809699"></polygon>
                            <polygon id="Polygon-Copy" transform="translate(8.044052, 19.119958) rotate(91.000000) translate(-8.044052, -19.119958) " points="8.04405231 11.1616379 13.0258767 19.1199575 8.04405231 27.0782771 3.06222788 19.1199575"></polygon>
                            <polygon id="Polygon-Copy-2" transform="translate(13.051840, 28.352616) rotate(-153.000000) translate(-13.051840, -28.352616) " points="13.0518396 20.3942961 18.033664 28.3526156 13.0518396 36.3109352 8.07001512 28.3526156"></polygon>
                        </g>
                    </g>
                </g>
            </g>
        </g>
    </g>
</svg>